HIERARCHY
ROOT Hips
{
	OFFSET 0.000000 71.427986 0.000000
	CHANNELS 6 Xposition Yposition Zposition Xrotation Yrotation Zrotation
	JOINT Pelvis
	{
		OFFSET 0.000000 0.000000 0.000000
		CHANNELS 3 Xrotation Yrotation Zrotation
		JOINT LeftUpLeg
		{
			OFFSET 6.797100 -2.508499 -1.318700
			CHANNELS 3 Xrotation Yrotation Zrotation
			JOINT LeftLeg
			{
				OFFSET 0.069008 -29.241863 0.690200
				CHANNELS 3 Xrotation Yrotation Zrotation
				JOINT LeftFoot
				{
					OFFSET -0.069008 -29.568123 -0.266800
					CHANNELS 3 Xrotation Yrotation Zrotation
					JOINT LeftToeBase
					{
						OFFSET 3.145500 -8.631000 16.059900
						CHANNELS 3 Xrotation Yrotation Zrotation
						End Site
						{
							OFFSET 0.000000 18.501587 0.000000
						}
					}
				}
			}
			JOINT Left_ShortSleeve
			{
				OFFSET 0.265923 -10.480953 1.153800
				CHANNELS 3 Xrotation Yrotation Zrotation
				End Site
				{
					OFFSET 1.725763 19.823879 0.000000
				}
			}
		}
		JOINT RightUpLeg
		{
			OFFSET -6.797100 -2.508499 -1.318700
			CHANNELS 3 Xrotation Yrotation Zrotation
			JOINT RightLeg
			{
				OFFSET -0.082453 -29.241932 0.688000
				CHANNELS 3 Xrotation Yrotation Zrotation
				JOINT RightFoot
				{
					OFFSET 0.082453 -29.568058 -0.264600
					CHANNELS 3 Xrotation Yrotation Zrotation
					JOINT RightToeBase
					{
						OFFSET -3.115300 -8.682800 16.113400
						CHANNELS 3 Xrotation Yrotation Zrotation
						End Site
						{
							OFFSET 0.000000 18.567114 0.000000
						}
					}
				}
			}
			JOINT Right_ShortSleeve
			{
				OFFSET -0.265923 -10.480953 1.153800
				CHANNELS 3 Xrotation Yrotation Zrotation
				End Site
				{
					OFFSET -1.725766 19.823910 0.000000
				}
			}
		}
	}
	JOINT Spine
	{
		OFFSET 0.000000 13.368103 0.470500
		CHANNELS 3 Xrotation Yrotation Zrotation
		JOINT Spine1
		{
			OFFSET 0.147000 13.837402 0.538800
			CHANNELS 3 Xrotation Yrotation Zrotation
			JOINT Spine2
			{
				OFFSET 0.168000 16.242897 -1.435500
				CHANNELS 3 Xrotation Yrotation Zrotation
				JOINT Neck
				{
					OFFSET 0.217200 18.631500 -1.679100
					CHANNELS 3 Xrotation Yrotation Zrotation
					JOINT Head
					{
						OFFSET 0.000000 6.599396 1.385900
						CHANNELS 3 Xrotation Yrotation Zrotation
						JOINT Hat
						{
							OFFSET -0.532200 27.220596 -10.096100
							CHANNELS 3 Xrotation Yrotation Zrotation
							End Site
							{
								OFFSET 0.000000 22.029861 0.000000
							}
						}
						JOINT HairD
						{
							OFFSET -10.777400 17.437393 -1.325900
							CHANNELS 3 Xrotation Yrotation Zrotation
							JOINT HairD1
							{
								OFFSET -3.290299 -11.051193 1.062200
								CHANNELS 3 Xrotation Yrotation Zrotation
								End Site
								{
									OFFSET 0.000000 11.579437 0.000000
								}
							}
						}
						JOINT HairB
						{
							OFFSET -10.777400 17.437393 1.467900
							CHANNELS 3 Xrotation Yrotation Zrotation
							JOINT HairB1
							{
								OFFSET -1.561200 -12.956299 3.590200
								CHANNELS 3 Xrotation Yrotation Zrotation
								End Site
								{
									OFFSET 0.000000 13.534866 0.000000
								}
							}
						}
						JOINT HairA
						{
							OFFSET 9.713100 17.437393 1.467900
							CHANNELS 3 Xrotation Yrotation Zrotation
							JOINT HairA1
							{
								OFFSET 1.561200 -12.956299 3.590200
								CHANNELS 3 Xrotation Yrotation Zrotation
								End Site
								{
									OFFSET 0.000000 13.534866 0.000000
								}
							}
						}
						JOINT HairC
						{
							OFFSET 9.713100 17.437393 -1.325900
							CHANNELS 3 Xrotation Yrotation Zrotation
							JOINT HairC1
							{
								OFFSET 3.290300 -11.051193 1.062200
								CHANNELS 3 Xrotation Yrotation Zrotation
								End Site
								{
									OFFSET 0.000000 11.579437 0.000000
								}
							}
						}
					}
				}
				JOINT LeftShoulder
				{
					OFFSET 5.101800 15.108002 -2.763700
					CHANNELS 3 Xrotation Yrotation Zrotation
					JOINT LeftArm
					{
						OFFSET 9.825497 2.506317 -1.597400
						CHANNELS 3 Xrotation Yrotation Zrotation
						JOINT LeftForeArm
						{
							OFFSET 21.966244 0.000000 0.000000
							CHANNELS 3 Xrotation Yrotation Zrotation
							JOINT LeftHand
							{
								OFFSET 33.879036 0.000000 0.000000
								CHANNELS 3 Xrotation Yrotation Zrotation
								JOINT LeftHandThumb1
								{
									OFFSET 6.715286 -2.359680 3.363841
									CHANNELS 3 Xrotation Yrotation Zrotation
									JOINT LeftHandThumb2
									{
										OFFSET 2.507072 -1.447464 1.447461
										CHANNELS 3 Xrotation Yrotation Zrotation
										JOINT LeftHandThumb3
										{
											OFFSET 2.898338 -1.673355 1.673357
											CHANNELS 3 Xrotation Yrotation Zrotation
											End Site
											{
												OFFSET -0.295959 3.727692 -0.131651
											}
										}
									}
								}
								JOINT LeftHandIndex1
								{
									OFFSET 14.190811 -0.254547 3.840278
									CHANNELS 3 Xrotation Yrotation Zrotation
									JOINT LeftHandIndex2
									{
										OFFSET 3.551727 0.000000 -0.000000
										CHANNELS 3 Xrotation Yrotation Zrotation
										JOINT LeftHandIndex3
										{
											OFFSET 2.894196 0.000000 0.000000
											CHANNELS 3 Xrotation Yrotation Zrotation
											End Site
											{
												OFFSET -1.000603 2.690872 0.366626
											}
										}
									}
								}
								JOINT LeftHandMiddle1
								{
									OFFSET 13.776489 0.000000 0.000000
									CHANNELS 3 Xrotation Yrotation Zrotation
									JOINT LeftHandMiddle2
									{
										OFFSET 3.438232 0.000000 0.000000
										CHANNELS 3 Xrotation Yrotation Zrotation
										JOINT LeftHandMiddle3
										{
											OFFSET 3.691551 0.000000 0.000000
											CHANNELS 3 Xrotation Yrotation Zrotation
											End Site
											{
												OFFSET -1.082298 3.499527 0.457670
											}
										}
									}
								}
								JOINT LeftHandRing1
								{
									OFFSET 13.966164 -0.268127 -3.067488
									CHANNELS 3 Xrotation Yrotation Zrotation
									JOINT LeftHandRing2
									{
										OFFSET 3.162567 0.000000 0.000000
										CHANNELS 3 Xrotation Yrotation Zrotation
										JOINT LeftHandRing3
										{
											OFFSET 3.324348 0.000000 0.000000
											CHANNELS 3 Xrotation Yrotation Zrotation
											End Site
											{
												OFFSET -0.861900 3.184998 0.405154
											}
										}
									}
								}
								JOINT LeftHandPinky1
								{
									OFFSET 13.131393 -0.168503 -5.746925
									CHANNELS 3 Xrotation Yrotation Zrotation
									JOINT LeftHandPinky2
									{
										OFFSET 2.849182 0.000000 0.000000
										CHANNELS 3 Xrotation Yrotation Zrotation
										JOINT LeftHandPinky3
										{
											OFFSET 2.805038 0.000000 0.000000
											CHANNELS 3 Xrotation Yrotation Zrotation
											End Site
											{
												OFFSET -0.882500 2.642609 0.325652
											}
										}
									}
								}
							}
							JOINT Left_Sleeve
							{
								OFFSET 6.592125 -0.646545 0.805568
								CHANNELS 3 Xrotation Yrotation Zrotation
								End Site
								{
									OFFSET -0.000179 20.275787 -0.000000
								}
							}
						}
					}
				}
				JOINT RightShoulder
				{
					OFFSET -5.731700 15.108002 -2.763700
					CHANNELS 3 Xrotation Yrotation Zrotation
					JOINT RightArm
					{
						OFFSET -9.825497 2.506317 -1.597400
						CHANNELS 3 Xrotation Yrotation Zrotation
						JOINT RightForeArm
						{
							OFFSET -21.966242 0.000000 0.000000
							CHANNELS 3 Xrotation Yrotation Zrotation
							JOINT RightHand
							{
								OFFSET -33.879032 0.000000 0.000000
								CHANNELS 3 Xrotation Yrotation Zrotation
								JOINT RightHandThumb1
								{
									OFFSET -6.715286 -2.359680 3.363841
									CHANNELS 3 Xrotation Yrotation Zrotation
									JOINT RightHandThumb2
									{
										OFFSET -2.507072 -1.447464 1.447461
										CHANNELS 3 Xrotation Yrotation Zrotation
										JOINT RightHandThumb3
										{
											OFFSET -2.898338 -1.673355 1.673357
											CHANNELS 3 Xrotation Yrotation Zrotation
											End Site
											{
												OFFSET 0.295959 3.727692 -0.131651
											}
										}
									}
								}
								JOINT RightHandIndex1
								{
									OFFSET -14.190811 -0.254547 3.840278
									CHANNELS 3 Xrotation Yrotation Zrotation
									JOINT RightHandIndex2
									{
										OFFSET -3.551727 0.000000 -0.000000
										CHANNELS 3 Xrotation Yrotation Zrotation
										JOINT RightHandIndex3
										{
											OFFSET -2.894196 0.000000 0.000000
											CHANNELS 3 Xrotation Yrotation Zrotation
											End Site
											{
												OFFSET 1.000603 2.690872 0.366626
											}
										}
									}
								}
								JOINT RightHandMiddle1
								{
									OFFSET -13.776489 0.000000 0.000000
									CHANNELS 3 Xrotation Yrotation Zrotation
									JOINT RightHandMiddle2
									{
										OFFSET -3.438232 0.000000 0.000000
										CHANNELS 3 Xrotation Yrotation Zrotation
										JOINT RightHandMiddle3
										{
											OFFSET -3.691551 0.000000 0.000000
											CHANNELS 3 Xrotation Yrotation Zrotation
											End Site
											{
												OFFSET 1.082298 3.499527 0.457670
											}
										}
									}
								}
								JOINT RightHandRing1
								{
									OFFSET -13.966164 -0.268127 -3.067488
									CHANNELS 3 Xrotation Yrotation Zrotation
									JOINT RightHandRing2
									{
										OFFSET -3.162567 0.000000 0.000000
										CHANNELS 3 Xrotation Yrotation Zrotation
										JOINT RightHandRing3
										{
											OFFSET -3.324348 0.000000 0.000000
											CHANNELS 3 Xrotation Yrotation Zrotation
											End Site
											{
												OFFSET 0.861900 3.184998 0.405154
											}
										}
									}
								}
								JOINT RightHandPinky1
								{
									OFFSET -13.131393 -0.168503 -5.746925
									CHANNELS 3 Xrotation Yrotation Zrotation
									JOINT RightHandPinky2
									{
										OFFSET -2.849182 0.000000 0.000000
										CHANNELS 3 Xrotation Yrotation Zrotation
										JOINT RightHandPinky3
										{
											OFFSET -2.805038 0.000000 0.000000
											CHANNELS 3 Xrotation Yrotation Zrotation
											End Site
											{
												OFFSET 0.882500 2.642609 0.325652
											}
										}
									}
								}
							}
							JOINT Right_Sleeve
							{
								OFFSET -6.592125 -0.646545 0.805568
								CHANNELS 3 Xrotation Yrotation Zrotation
								End Site
								{
									OFFSET 0.000179 20.275787 -0.000000
								}
							}
						}
					}
				}
				JOINT Bind_Right_JacketString
				{
					OFFSET -3.534800 11.969597 7.200700
					CHANNELS 3 Xrotation Yrotation Zrotation
					JOINT Bind_Right_JacketString1
					{
						OFFSET -0.319900 -6.102600 2.794100
						CHANNELS 3 Xrotation Yrotation Zrotation
						End Site
						{
							OFFSET 0.000000 6.719452 0.000000
						}
					}
				}
				JOINT Bind_Left_JacketString
				{
					OFFSET 2.904800 11.969597 7.200700
					CHANNELS 3 Xrotation Yrotation Zrotation
					JOINT Bind_Left_JacketString1
					{
						OFFSET 0.364800 -5.904503 3.186800
						CHANNELS 3 Xrotation Yrotation Zrotation
						End Site
						{
							OFFSET 0.000000 6.719513 0.000000
						}
					}
				}
				JOINT HairE
				{
					OFFSET 5.915200 17.612701 -11.592200
					CHANNELS 3 Xrotation Yrotation Zrotation
					JOINT HairE1
					{
						OFFSET 0.289200 -7.171898 -1.284500
						CHANNELS 3 Xrotation Yrotation Zrotation
						End Site
						{
							OFFSET 0.000000 7.291756 0.000000
						}
					}
				}
				JOINT HairF
				{
					OFFSET -0.864800 17.612701 -11.592200
					CHANNELS 3 Xrotation Yrotation Zrotation
					JOINT HairF1
					{
						OFFSET 0.000000 -14.087097 -2.127501
						CHANNELS 3 Xrotation Yrotation Zrotation
						End Site
						{
							OFFSET 0.000000 14.246841 0.000000
						}
					}
				}
				JOINT HairG
				{
					OFFSET -8.087700 17.612701 -11.592200
					CHANNELS 3 Xrotation Yrotation Zrotation
					JOINT HairG1
					{
						OFFSET -0.293600 -6.081398 -0.910100
						CHANNELS 3 Xrotation Yrotation Zrotation
						End Site
						{
							OFFSET 0.000000 6.156120 0.000000
						}
					}
				}
			}
		}
	}
	JOINT Pouch
	{
		OFFSET 0.000000 4.394501 10.847300
		CHANNELS 3 Xrotation Yrotation Zrotation
		End Site
		{
			OFFSET 0.000000 21.880577 0.000000
		}
	}
	JOINT Bag
	{
		OFFSET -13.229000 4.813004 -0.593300
		CHANNELS 3 Xrotation Yrotation Zrotation
		End Site
		{
			OFFSET 0.000000 21.880577 0.000000
		}
	}
	JOINT OccupyGuyFacialAnim_Joint
	{
		OFFSET 1.000000 -70.206398 -1.655000
		CHANNELS 3 Xrotation Yrotation Zrotation
		End Site
		{
			OFFSET 0.000000 21.880577 0.000000
		}
	}
}
MOTION
Frames: 4
Frame Time: 0.033333
0.119191 66.941101 1.566298 6.299796 3.197983 -2.317813 0.000000 0.000000 -0.000000 -4.334657 2.102157 1.616245 35.891319 -2.553397 -8.096803 -29.816347 -0.676170 8.390122 0.000001 0.000000 0.000000 0.000000 0.000001 0.000000 -30.191936 7.674273 -1.435786 74.612925 -1.137165 1.959732 5.750980 2.256400 14.555884 0.000003 -0.000000 -0.000000 -0.000002 0.000001 -0.000000 4.159439 1.688553 1.601574 11.025828 -0.630334 -0.254997 11.023460 -0.664403 -0.142240 -0.000009 -0.000000 -0.000000 -19.249739 -0.016961 0.160063 0.000001 0.000000 0.000000 0.000001 0.000000 0.000000 0.000001 0.000000 0.000000 0.000001 0.000000 0.000000 0.000001 0.000000 0.000000 0.000001 0.000000 0.000000 0.000001 0.000000 0.000000 0.000001 0.000000 0.000000 0.000001 0.000000 0.000000 1.253042 4.822506 -15.195708 -10.036545 -15.825822 -59.312912 0.000021 -59.720196 0.000014 -7.146904 -2.189488 0.938611 -1.486880 -0.157504 6.304624 20.232665 29.714000 -1.736415 0.000001 0.000001 -0.000000 4.570872 8.232530 -62.810816 7.157082 5.703914 -102.919517 0.000002 0.000005 0.000002 9.037039 8.498489 -84.962048 7.156241 5.704116 -102.910925 0.000001 0.000003 -0.000001 9.037015 8.498434 -84.962034 7.156244 5.704132 -102.910918 0.000000 -0.000001 -0.000001 9.037039 8.498493 -84.962048 7.156249 5.704136 -102.910938 -0.000002 0.000000 0.000003 0.000002 0.000002 -0.000001 1.161838 -7.040953 13.985763 10.860807 8.897780 58.169477 -0.000011 62.428878 0.000022 -5.225368 5.990634 -0.675297 -2.334323 2.173633 -5.551754 20.566287 -29.826907 2.652305 0.000000 -0.000001 0.000000 2.972715 -6.626974 62.106309 5.695172 -4.540232 102.892429 0.000001 -0.000001 0.000002 6.663879 -7.155841 84.173715 5.695008 -4.540299 102.890065 -0.000000 -0.000000 -0.000001 6.668206 -7.156228 84.173885 5.695016 -4.540315 102.890072 0.000001 -0.000004 -0.000002 6.663878 -7.155845 84.173708 5.695027 -4.540312 102.890079 -0.000002 0.000001 0.000001 0.000002 0.000002 -0.000001 -0.000000 0.000000 -0.000000 -0.000000 -0.000000 -0.000000 -0.000000 0.000000 -0.000000 -0.000000 0.000000 -0.000000 -0.000000 0.000000 -0.000000 -0.000000 -0.000000 -0.000000 -0.000000 0.000000 -0.000000 -0.000000 0.000000 -0.000000 -0.000000 0.000000 -0.000000 -0.000000 -0.000000 -0.000000 0.000000 0.000000 -0.000000 0.000000 0.000000 -0.000000 0.000000 0.000000 -0.000000 
-0.020450 65.034309 3.973128 8.422812 4.422823 -0.639136 -0.000000 -0.000000 -0.000000 -6.756975 0.205464 -2.455960 41.929579 -0.405418 -4.244629 -34.845330 0.067508 5.845863 0.000000 -0.000000 0.000000 0.000000 0.000000 -0.000001 -42.842669 6.411008 -8.250232 82.858678 -3.602404 2.759786 4.215218 3.029639 29.716005 0.000000 0.000001 -0.000000 -0.000004 -0.000001 0.000001 4.882702 -2.600949 0.365561 9.102277 -1.544621 -0.166035 9.111089 -1.562586 -0.048329 0.819188 0.247985 0.151661 -17.524006 1.248767 0.061752 -0.000001 -0.000000 -0.000000 -0.000001 -0.000000 -0.000000 -0.000001 -0.000000 -0.000000 -0.000001 -0.000000 -0.000000 -0.000001 -0.000000 -0.000000 -0.000001 -0.000000 -0.000000 -0.000001 -0.000000 -0.000000 -0.000001 -0.000000 -0.000000 -0.000001 -0.000000 -0.000000 1.218386 1.475524 -15.086551 -17.290103 -19.016802 -60.090802 -0.000012 -64.553457 -0.000025 0.246489 -3.120040 3.081817 -0.372377 -0.247915 5.993410 17.825066 27.058313 -0.251538 0.000000 0.000003 -0.000002 2.532256 6.681186 -52.218941 5.907101 5.850761 -90.549922 -0.000003 -0.000002 0.000001 6.194109 8.555334 -72.799448 5.820394 5.850970 -89.699174 0.000001 0.000003 -0.000001 7.524489 8.898837 -73.874964 5.778473 5.850622 -89.287675 -0.000002 -0.000002 -0.000000 9.358721 10.638048 -74.661932 5.815101 5.850943 -89.647169 0.000001 -0.000003 0.000002 0.000001 -0.000001 0.000002 1.211995 -4.721729 13.664206 8.622193 6.194915 61.732991 0.000010 61.348588 -0.000007 1.709391 4.409248 1.970102 -2.268620 2.169229 -5.530882 20.594735 -29.878143 2.695237 -0.000001 0.000000 0.000002 3.011910 -6.645139 62.340591 5.724445 -4.533463 103.262481 0.000000 -0.000001 0.000000 6.714460 -7.148362 84.466866 5.721702 -4.534128 103.227572 0.000002 -0.000000 0.000001 6.690963 -7.147107 84.441287 5.721938 -4.534091 103.230257 -0.000002 -0.000002 -0.000001 6.648786 -7.143351 84.432975 5.719965 -4.534550 103.205313 0.000001 0.000001 -0.000003 0.000001 0.000001 -0.000001 -0.000000 -0.000000 0.000000 -0.000000 0.000000 0.000000 -0.000000 -0.000000 -0.000000 -0.000000 -0.000000 -0.000000 -0.000000 -0.000000 0.000000 -0.000000 0.000000 0.000000 -0.000000 -0.000000 -0.000000 -0.000000 -0.000000 -0.000000 -0.000000 -0.000000 0.000000 -0.000000 0.000000 0.000000 -0.000000 -0.000000 -0.000000 -0.000000 -0.000000 -0.000000 -0.000000 -0.000000 -0.000000 
0.033649 64.829468 7.787849 10.188932 2.138028 -1.272631 0.000001 -0.000000 0.000000 -1.198845 2.854582 -2.674468 35.268013 1.532542 -2.890833 -35.662491 0.582602 5.700949 -0.000000 -0.000001 -0.000000 -0.000001 0.000000 0.000001 -51.066466 5.097254 -7.734442 77.889012 -6.345039 2.833050 -3.955008 4.554793 19.740068 -0.000001 -0.000000 0.000000 -0.000004 0.000001 -0.000001 5.052688 -3.519973 1.724156 7.532444 -1.536990 -0.116753 7.541243 -1.539074 -0.021925 1.915972 0.233691 0.072554 -14.219464 0.541804 0.891210 0.000000 0.000000 -0.000000 0.000000 0.000000 -0.000000 0.000000 0.000000 -0.000000 0.000000 0.000000 -0.000000 0.000000 -0.000000 0.000000 0.000000 0.000000 -0.000000 0.000000 -0.000000 0.000000 0.000000 0.000000 -0.000000 0.000000 0.000000 -0.000000 0.902678 -3.019227 -11.052888 -25.227770 -17.501651 -63.089310 -0.000049 -67.349354 -0.000049 7.394520 -6.011048 3.608361 0.739042 -0.354811 5.679436 15.528739 24.342538 0.995783 -0.000002 -0.000001 0.000004 1.013783 4.804340 -41.696847 4.654508 5.727795 -78.179786 0.000001 0.000000 0.000002 3.607421 7.763936 -60.659456 4.486199 5.690178 -76.487757 -0.000001 0.000001 -0.000004 5.953385 8.939172 -62.772772 4.404771 5.670103 -75.665218 0.000004 0.000001 -0.000002 8.957157 12.655889 -64.209673 4.475887 5.687708 -76.383788 -0.000002 -0.000000 0.000003 0.000002 -0.000001 0.000001 2.279767 -2.792218 15.065925 4.621026 4.231445 63.197138 0.000001 57.073365 -0.000009 7.116248 7.251946 0.161369 -2.119197 2.155960 -5.483683 20.659912 -29.994513 2.793452 0.000001 -0.000001 0.000003 3.101443 -6.685496 62.873141 5.790816 -4.517352 104.103524 -0.000000 -0.000000 0.000000 6.829305 -7.129919 85.133056 5.782255 -4.519512 103.994671 0.000001 0.000001 0.000003 6.752396 -7.126814 85.049399 5.782946 -4.519358 104.003441 0.000001 -0.000001 -0.000001 6.614196 -7.115836 85.022208 5.776513 -4.520938 103.921800 0.000001 0.000001 0.000001 -0.000000 -0.000002 0.000000 -0.000003 -0.000000 -0.000000 -0.000001 -0.000000 0.000000 -0.000003 -0.000000 -0.000000 -0.000003 -0.000000 -0.000000 -0.000003 -0.000000 -0.000000 -0.000001 -0.000000 0.000000 -0.000003 -0.000000 -0.000000 -0.000003 -0.000000 -0.000000 -0.000003 -0.000000 -0.000000 -0.000001 -0.000000 0.000000 0.000001 -0.000000 0.000000 0.000001 -0.000000 0.000000 0.000001 -0.000000 0.000000 
-0.426914 65.173012 13.054087 11.858335 -0.769491 -3.123315 -0.000001 -0.000000 -0.000000 2.738511 5.102984 -0.692609 32.008585 3.094974 -1.396687 -30.688163 1.267768 0.963334 0.000002 0.000001 -0.000000 -0.000001 0.000001 -0.000000 -54.493008 3.248257 -7.118299 58.672288 -9.663862 4.396930 -1.833171 -0.797072 21.307561 -0.000001 0.000002 0.000001 -0.000001 0.000000 -0.000000 5.842435 -4.815054 4.255177 6.125793 -1.715573 0.361222 6.127785 -1.716048 0.446690 2.789502 0.395648 -0.320444 -11.715444 1.196346 0.544134 0.000000 -0.000000 0.000000 0.000000 -0.000000 0.000000 0.000000 -0.000000 0.000000 0.000000 -0.000000 0.000000 -0.000001 0.000000 -0.000000 0.000000 -0.000000 0.000000 -0.000001 0.000000 -0.000000 0.000000 -0.000000 0.000000 0.000000 -0.000000 0.000000 1.815208 -2.679620 -8.738805 -26.245774 -18.634209 -63.319692 -0.000013 -69.765745 -0.000014 12.081999 -11.006012 8.706218 1.732286 -0.464656 5.396012 13.549790 21.867225 1.921914 0.000002 0.000001 0.000001 0.127285 2.956933 -32.310046 3.577893 5.392819 -67.102709 0.000002 -0.000000 -0.000002 1.702516 6.458552 -49.844251 3.350355 5.291436 -64.659475 -0.000001 0.000000 0.000002 4.563651 8.657429 -52.830335 3.241219 5.238590 -63.469963 -0.000002 0.000001 -0.000003 8.023300 14.209329 -54.693320 3.336522 5.284887 -64.509067 0.000000 0.000002 0.000001 -0.000001 0.000001 -0.000000 3.173501 -1.340682 14.246344 -0.050929 4.424381 65.195194 -0.000003 52.693461 0.000021 11.057039 7.438252 -3.281440 -1.957912 2.141941 -5.432498 20.731108 -30.120103 2.900396 -0.000002 -0.000000 0.000003 3.198815 -6.727643 63.448469 5.862202 -4.498867 105.011857 -0.000000 0.000001 0.000002 6.953126 -7.107783 85.852445 5.847412 -4.502833 104.823070 -0.000000 -0.000001 0.000001 6.818516 -7.104067 85.706095 5.848624 -4.502515 104.838472 0.000000 -0.000000 0.000001 6.576445 -7.087503 85.658584 5.837409 -4.505470 104.695585 0.000002 0.000004 -0.000001 0.000000 -0.000003 0.000001 -0.000001 -0.000001 0.000000 -0.000003 -0.000000 0.000000 -0.000001 -0.000001 -0.000000 -0.000001 -0.000001 -0.000000 -0.000001 -0.000001 0.000000 -0.000003 -0.000000 0.000000 -0.000001 -0.000001 -0.000000 -0.000001 -0.000001 -0.000000 -0.000001 -0.000001 0.000000 -0.000003 -0.000000 0.000000 -0.000001 -0.000000 -0.000000 -0.000001 -0.000000 -0.000000 -0.000001 -0.000000 -0.000000 
